<svg width="26" height="26" viewBox="0 0 26 26" fill="none" xmlns="http://www.w3.org/2000/svg">
<path fill-rule="evenodd" clip-rule="evenodd" d="M15.6617 3.04129C14.8417 2.69223 13.9413 2.5 13 2.5C9.5341 2.5 6.62247 5.10603 6.23973 8.55071L5.96694 11.0058C5.94714 11.184 5.9384 11.2623 5.92821 11.3387C5.80458 12.2667 5.5024 13.1619 5.03839 13.9749C5.00013 14.0419 4.95968 14.1094 4.8674 14.2632L4.2412 15.3069L4.21749 15.3464C3.91899 15.8438 3.66038 16.2748 3.4991 16.6355C3.33441 17.0039 3.19546 17.4569 3.34565 17.9381C3.41984 18.1758 3.54392 18.3949 3.70959 18.5809C4.04494 18.9572 4.50488 19.0711 4.90545 19.1194C5.29777 19.1667 5.80035 19.1667 6.38047 19.1667H6.38049L6.42656 19.1667H19.5734L19.6195 19.1667H19.6195C20.1996 19.1667 20.7022 19.1667 21.0945 19.1194C21.4951 19.0711 21.955 18.9572 22.2904 18.5809C22.456 18.3949 22.5801 18.1758 22.6543 17.9381C22.8045 17.4569 22.6655 17.0039 22.5009 16.6355C22.3396 16.2748 22.081 15.8439 21.7825 15.3464L21.7825 15.3464L21.7588 15.3069L21.1326 14.2632C21.0403 14.1094 20.9998 14.0419 20.9616 13.9749C20.5463 13.2473 20.2607 12.454 20.1166 11.6302C19.9144 11.6543 19.7087 11.6667 19.5 11.6667C19.1901 11.6667 18.8866 11.6394 18.5917 11.5871C18.7451 12.6891 19.1072 13.7519 19.6588 14.7184C19.706 14.8012 19.7552 14.8831 19.8409 15.026L19.8412 15.0264L19.8463 15.035L20.4725 16.0786C20.8016 16.6271 21.0117 16.9798 21.1315 17.2478C21.2021 17.4058 21.2155 17.4804 21.2179 17.5045C21.2087 17.5289 21.1958 17.5518 21.1795 17.5722C21.1577 17.5826 21.0868 17.6095 20.915 17.6302C20.6235 17.6654 20.2129 17.6667 19.5734 17.6667H6.42656C5.78701 17.6667 5.37647 17.6654 5.08499 17.6302C4.91318 17.6095 4.84227 17.5826 4.82044 17.5722C4.8042 17.5518 4.79127 17.5289 4.7821 17.5045C4.78441 17.4804 4.79783 17.4058 4.86846 17.2478C4.98829 16.9798 5.19839 16.6271 5.52744 16.0786L6.15364 15.035L6.15861 15.0267C6.2446 14.8834 6.29384 14.8013 6.34114 14.7184C6.90117 13.7372 7.26586 12.6568 7.41507 11.5369C7.42767 11.4423 7.43824 11.3472 7.45669 11.1811L7.4567 11.1811L7.45777 11.1714L7.73055 8.71636C8.02889 6.03133 10.2984 4 13 4C13.6355 4 14.2471 4.11241 14.8147 4.31928C15.0331 3.85084 15.3197 3.42059 15.6617 3.04129ZM18.123 4.82712C17.6978 5.17751 17.4085 5.68685 17.346 6.26421C17.7505 6.8422 18.0435 7.50645 18.1921 8.22756C18.5556 8.50314 19.0087 8.66667 19.5 8.66667C19.5918 8.66667 19.6824 8.66095 19.7712 8.64985L19.7602 8.55071C19.6017 7.12371 19.0091 5.84063 18.123 4.82712ZM21.2183 17.5108L21.2182 17.5136C21.2182 17.5136 21.2183 17.5132 21.2183 17.5124C21.2183 17.512 21.2183 17.5115 21.2183 17.5108ZM21.1875 17.5678C21.1876 17.5678 21.1868 17.5684 21.1852 17.5693C21.1866 17.5683 21.1875 17.5678 21.1875 17.5678ZM4.81245 17.5678C4.81251 17.5678 4.81337 17.5683 4.81485 17.5693C4.81313 17.5684 4.81239 17.5678 4.81245 17.5678ZM4.78175 17.5136C4.78169 17.5136 4.78162 17.5127 4.78168 17.5107C4.78183 17.5126 4.7818 17.5136 4.78175 17.5136Z" fill="black"/>
<path d="M9.86074 19.1367C10.0459 20.1733 10.4539 21.0893 11.0215 21.7426C11.5891 22.3959 12.2846 22.75 13 22.75C13.7154 22.75 14.4109 22.3959 14.9785 21.7426C15.5461 21.0893 15.9541 20.1733 16.1393 19.1367" stroke="black" stroke-width="1.5" stroke-linecap="round"/>
<circle cx="18.5" cy="7.5" r="3.5" fill="#EF466F"/>
</svg>
