<svg width="17" height="17" viewBox="0 0 17 17" fill="none" xmlns="http://www.w3.org/2000/svg">
<path fill-rule="evenodd" clip-rule="evenodd" d="M10.3218 1.15042C10.1608 1.15042 10.0063 1.08982 9.89246 0.981949C9.7786 0.874081 9.71463 0.72778 9.71463 0.575231C9.71463 0.422683 9.7786 0.276382 9.89246 0.168514C10.0063 0.0606455 10.1608 4.57764e-05 10.3218 4.57764e-05H16.3932C16.5542 4.57764e-05 16.7086 0.0606455 16.8225 0.168514C16.9364 0.276382 17.0003 0.422683 17.0003 0.575231V6.32709C17.0003 6.47964 16.9364 6.62594 16.8225 6.73381C16.7086 6.84167 16.5542 6.90227 16.3932 6.90227C16.2322 6.90227 16.0777 6.84167 15.9639 6.73381C15.85 6.62594 15.786 6.47964 15.786 6.32709V1.96373L10.7723 6.71361C11.758 7.85615 12.2426 9.31391 12.1257 10.7854C12.0088 12.2569 11.2994 13.6295 10.1443 14.6194C8.98911 15.6093 7.47654 16.1407 5.91941 16.1038C4.36227 16.0669 2.87968 15.4644 1.77828 14.4209C0.676868 13.3775 0.0409008 11.9729 0.00190499 10.4978C-0.0370908 9.02257 0.523868 7.58962 1.56876 6.49526C2.61366 5.4009 4.06255 4.72885 5.61579 4.61811C7.16902 4.50738 8.70776 4.96642 9.91378 5.9003L14.9275 1.15042H10.3218ZM6.07179 5.7519C4.7836 5.7519 3.54817 6.2367 2.63729 7.09965C1.7264 7.96259 1.21467 9.133 1.21467 10.3534C1.21467 11.5738 1.7264 12.7442 2.63729 13.6071C3.54817 14.4701 4.7836 14.9549 6.07179 14.9549C7.35998 14.9549 8.59541 14.4701 9.5063 13.6071C10.4172 12.7442 10.9289 11.5738 10.9289 10.3534C10.9289 9.133 10.4172 7.96259 9.5063 7.09965C8.59541 6.2367 7.35998 5.7519 6.07179 5.7519Z" fill="#9D9D9D"/>
</svg>
